<svg width="13" height="13" viewBox="0 0 13 13" fill="none" xmlns="http://www.w3.org/2000/svg">
<path d="M1.90757 1.90776C-0.629347 4.44467 -0.629347 8.5586 1.90757 11.0955C4.44449 13.6324 8.55842 13.6324 11.0953 11.0955C13.6323 8.5586 13.6323 4.44467 11.0953 1.90776C8.55842 -0.629164 4.44449 -0.629164 1.90757 1.90776ZM6.762 2.73054C7.31053 2.73054 7.74935 3.18307 7.74935 3.7316C7.74935 4.28012 7.29681 4.73265 6.762 4.73265C6.21348 4.73265 5.76095 4.28012 5.76095 3.71788C5.76095 3.16936 6.21348 2.73054 6.762 2.73054ZM8.17445 9.43624C8.14702 9.51851 8.09217 9.61451 8.03732 9.66936C7.68078 10.0396 7.24196 10.259 6.72086 10.259C6.47403 10.259 6.24091 10.259 5.99407 10.2179C5.59639 10.163 5.08901 9.66936 5.15757 9.14826C5.21242 8.79172 5.26728 8.43518 5.32213 8.07864C5.43183 7.46155 5.54154 6.83075 5.65124 6.21366C5.65124 6.17252 5.66496 6.13138 5.66496 6.09024C5.66496 5.8297 5.58268 5.7337 5.32213 5.70628C5.21243 5.69256 5.10272 5.67885 4.99302 5.65143C4.8696 5.61029 4.80103 5.50058 4.81475 5.40459C4.82846 5.29489 4.89702 5.22632 5.03416 5.19889C5.10272 5.18518 5.185 5.18518 5.26728 5.18518C5.56897 5.18518 5.87065 5.18518 6.18605 5.18518C6.51517 5.18518 6.83057 5.18518 7.15968 5.18518C7.39281 5.18518 7.52994 5.29489 7.52994 5.52801C7.52994 5.71999 7.50251 5.91197 7.46137 6.10396C7.33795 6.81704 7.20082 7.5164 7.0774 8.22948C7.03626 8.46261 6.98141 8.69573 6.95399 8.92885C6.94027 9.03856 6.95399 9.16197 6.98141 9.27168C7.02255 9.42252 7.13226 9.5048 7.2831 9.49109C7.40652 9.47737 7.52994 9.43624 7.65335 9.38138C7.74935 9.34024 7.83162 9.27168 7.92762 9.24425C8.09217 9.1894 8.21559 9.28539 8.17445 9.43624Z" fill="white"/>
</svg>
