<svg width="13" height="13" viewBox="0 0 13 13" fill="none" xmlns="http://www.w3.org/2000/svg">
<path d="M12.9978 12.528C12.9978 12.7911 12.7966 12.9923 12.5335 12.9923H5.10491C4.84182 12.9923 4.64062 12.7911 4.64062 12.528C4.64062 12.2649 4.84182 12.0637 5.10491 12.0637H12.5335C12.7966 12.0637 12.9978 12.2649 12.9978 12.528Z" fill="white"/>
<path d="M11.6048 9.74231C11.8679 9.74231 12.0691 9.9435 12.0691 10.2066C12.0691 10.4697 11.8679 10.6709 11.6048 10.6709H7.4262C7.1631 10.6709 6.96191 10.4697 6.96191 10.2066C6.96191 9.9435 7.1631 9.74231 7.4262 9.74231H11.6048Z" fill="white"/>
<path d="M2.64453 7.56021L8.47905 1.71021L11.2648 4.49592L5.43025 10.3459L2.64453 7.56021Z" fill="white"/>
<path d="M9.14453 1.06012L9.62429 0.580357C10.3981 -0.193452 11.6517 -0.193452 12.41 0.580357C13.1838 1.35417 13.1838 2.60774 12.41 3.36607L11.9302 3.84583L9.14453 1.06012Z" fill="white"/>
<path d="M4.77962 10.9959L4.17604 11.5995L0.306997 12.9769C0.121283 13.0388 -0.0489553 12.8685 0.0129495 12.6828L1.39033 8.81378L1.9939 8.21021L4.77962 10.9959Z" fill="white"/>
</svg>
