<svg width="13" height="9" viewBox="0 0 13 9" fill="none" xmlns="http://www.w3.org/2000/svg">
<g clip-path="url(#clip0)">
<path d="M6.37 4.72727C6.45667 4.76874 6.55778 4.76874 6.63 4.72727L13 1.18873V0.718767C13 0.317916 12.6678 0 12.2489 0H0.751111C0.332222 0.0138224 0 0.331738 0 0.718767V1.18873L6.37 4.72727Z" fill="white"/>
<path d="M13.0003 2.18396L9.28809 4.2435L13.0003 6.30305V2.18396Z" fill="white"/>
<path d="M8.39222 4.74109L7.07778 5.47368C6.90444 5.57043 6.70222 5.62573 6.5 5.62573C6.29778 5.62573 6.09556 5.57043 5.92222 5.47368L4.60778 4.74109L0 7.29824V7.94789C0 8.34874 0.332222 8.66666 0.751111 8.66666H12.2489C12.6678 8.66666 13 8.34874 13 7.94789V7.29824L8.39222 4.74109Z" fill="white"/>
<path d="M3.71222 4.2435L0 2.18396V6.30305L3.71222 4.2435Z" fill="white"/>
</g>
<defs>
<clipPath id="clip0">
<rect width="13" height="8.66667" fill="white"/>
</clipPath>
</defs>
</svg>
