<svg width="26" height="26" viewBox="0 0 26 26" fill="none" xmlns="http://www.w3.org/2000/svg">
<circle cx="12.9526" cy="12.9526" r="12.9526" fill="#5E5D5D"/>
<g clip-path="url(#clip0)">
<path d="M22.3657 8.35631C21.7447 8.62923 21.0812 8.80792 20.3883 8.89565C21.1008 8.47328 21.6434 7.81048 21.8983 7.01123C21.2348 7.40436 20.5027 7.68052 19.7216 7.83648C19.0941 7.17043 18.1953 6.75781 17.2181 6.75781C15.3192 6.75781 13.7896 8.29133 13.7896 10.1692C13.7896 10.4389 13.8125 10.6988 13.868 10.9458C11.0148 10.8093 8.49162 9.44797 6.79536 7.37837C6.49794 7.88846 6.32472 8.47328 6.32472 9.10358C6.32472 10.2862 6.9359 11.3324 7.84776 11.9367C7.29541 11.927 6.75614 11.7678 6.29857 11.5176C6.29857 11.5273 6.29857 11.5403 6.29857 11.5566C6.29857 13.2135 7.48825 14.5911 9.04724 14.9063C8.76943 14.981 8.46221 15.02 8.14845 15.02C7.92947 15.02 7.70722 15.007 7.49805 14.9615C7.94254 16.3131 9.20412 17.304 10.7043 17.3365C9.53749 18.243 8.05367 18.7921 6.45219 18.7921C6.17111 18.7921 5.89984 18.7791 5.63184 18.7466C7.15161 19.7213 8.95246 20.2768 10.8938 20.2768C17.2083 20.2768 20.6596 15.0785 20.6596 10.5721C20.6596 10.4227 20.6531 10.2765 20.6465 10.1303C21.3263 9.64941 21.8983 9.04835 22.3657 8.35631Z" fill="white"/>
</g>
<defs>
<clipPath id="clip0">
<rect x="5.63184" y="6.75781" width="16.7338" height="13.5158" fill="white"/>
</clipPath>
</defs>
</svg>
