<svg width="26" height="26" viewBox="0 0 26 26" fill="none" xmlns="http://www.w3.org/2000/svg">
<circle cx="12.9526" cy="12.9526" r="12.9526" fill="#5E5D5D"/>
<path d="M20.0098 9.54411C19.9268 9.24696 19.7687 8.97622 19.5505 8.75807C19.3324 8.53993 19.0616 8.38174 18.7645 8.29881C17.6492 8.00001 13.1606 8.00001 13.1606 8.00001C13.1606 8.00001 8.68337 7.99404 7.55676 8.29881C7.2596 8.38174 6.98887 8.53993 6.77072 8.75807C6.55257 8.97622 6.39439 9.24696 6.31145 9.54411C6.10004 10.6859 5.99581 11.845 6.00013 13.0063C5.99663 14.1631 6.10085 15.3178 6.31145 16.4553C6.39439 16.7525 6.55257 17.0232 6.77072 17.2413C6.98887 17.4595 7.2596 17.6177 7.55676 17.7006C8.67085 18 13.1606 18 13.1606 18C13.1606 18 17.6373 18 18.7645 17.7006C19.0616 17.6177 19.3324 17.4595 19.5505 17.2413C19.7687 17.0232 19.9268 16.7525 20.0098 16.4553C20.216 15.3174 20.3158 14.1627 20.308 13.0063C20.3166 11.8454 20.2168 10.6864 20.0098 9.54411V9.54411ZM11.728 15.148V10.858L15.4639 13.0063L11.728 15.148Z" fill="white"/>
</svg>
